<svg class="bob" font-family="arial" font-size="14" height="208" width="304" xmlns="http://www.w3.org/2000/svg">
<defs>
<marker id="triangle" markerHeight="8" markerWidth="8" orient="auto" refX="4" refY="2" viewBox="0 0 8 4">
<polygon class="fg_fill" points="0,0 0,4 8,2 0,0"/>
</marker>
<marker id="clear_triangle" markerHeight="10" markerWidth="10" orient="auto" refX="1" refY="7" viewBox="0 0 20 14">
<polygon class="bg_fill" points="2,2 2,12 18,7 2,2"/>
</marker>
<marker id="circle" markerHeight="5" markerWidth="5" orient="auto" refX="10" refY="10" viewBox="0 0 20 20">
<circle class="fg_fill" cx="10" cy="10" r="8"/>
</marker>
<marker id="square" markerHeight="5" markerWidth="5" orient="auto" refX="10" refY="10" viewBox="0 0 20 20">
<rect class="fg_fill" height="20" width="20" x="0" y="0"/>
</marker>
<marker id="open_circle" markerHeight="10" markerWidth="10" orient="auto" refX="10" refY="10" viewBox="0 0 20 20">
<circle class="bg_fill" cx="10" cy="10" r="4"/>
</marker>
<marker id="big_open_circle" markerHeight="20" markerWidth="20" orient="auto" refX="20" refY="20" viewBox="0 0 40 40">
<circle class="bg_fill" cx="20" cy="20" r="6"/>
</marker>
</defs>
<style type="text/css">

rect.backdrop {
    fill: white;
}
text{
    fill: black;
}

circle {
    fill: none;
    stroke: black;
    stroke-width: 2;
}

line {
    stroke: black;
    stroke-width: 2;
    stroke-opacity: 1;
    fill-opacity: 1;
    stroke-linecap: round;
    stroke-linejoin: miter;
}

path {
    fill: none;
    stroke: black;
    stroke-width: 2;
    stroke-opacity: 1;
    fill-opacity: 1;
    stroke-linecap: round;
    stroke-linejoin: miter;
}

line.dashed {
    stroke-dasharray: 5;
}

.fg_fill {
    fill: black;
}


.bg_fill {
    fill: white;
    stroke: black;
    stroke-width: 2;
}

tspan.head{
    fill: none;
    stroke: none;
}
    
</style>
<rect class="backdrop" height="208" width="304" x="0" y="0"/>
<g>
<line x1="104" x2="108" y1="96" y2="88"/>
<line x1="104" x2="108" y1="96" y2="104"/>
<line x1="108" x2="108" y1="8" y2="88"/>
<line x1="108" x2="112" y1="8" y2="0"/>
<line x1="108" x2="108" y1="104" y2="200"/>
<line x1="112" x2="108" y1="208" y2="200"/>
</g>
<g>
<text x="17" y="92">
REPORT
</text>
</g>
<g>
<text x="121" y="12">
BEGIN REPORT
</text>
</g>
<g>
<text x="121" y="60">
ACCESS FILE
</text>
</g>
<g>
<text x="121" y="124">
PRINT DETAILS ON FILE
</text>
</g>
<g>
<text x="121" y="172">
END REPORT
</text>
</g>
<g>
<text x="129" y="28">
(1 time)
</text>
</g>
<g>
<text x="129" y="76">
(1 time)
</text>
</g>
<g>
<text x="129" y="140">
(1 time)
</text>
</g>
<g>
<text x="129" y="188">
(1 time)
</text>
</g>
</svg>