<svg class="bob" font-family="arial" font-size="14" height="352" width="792" xmlns="http://www.w3.org/2000/svg">
<defs>
<marker id="triangle" markerHeight="8" markerWidth="8" orient="auto" refX="4" refY="2" viewBox="0 0 8 4">
<polygon class="fg_fill" points="0,0 0,4 8,2 0,0"/>
</marker>
<marker id="clear_triangle" markerHeight="10" markerWidth="10" orient="auto" refX="1" refY="7" viewBox="0 0 20 14">
<polygon class="bg_fill" points="2,2 2,12 18,7 2,2"/>
</marker>
<marker id="circle" markerHeight="5" markerWidth="5" orient="auto" refX="10" refY="10" viewBox="0 0 20 20">
<circle class="fg_fill" cx="10" cy="10" r="8"/>
</marker>
<marker id="square" markerHeight="5" markerWidth="5" orient="auto" refX="10" refY="10" viewBox="0 0 20 20">
<rect class="fg_fill" height="20" width="20" x="0" y="0"/>
</marker>
<marker id="open_circle" markerHeight="10" markerWidth="10" orient="auto" refX="10" refY="10" viewBox="0 0 20 20">
<circle class="bg_fill" cx="10" cy="10" r="4"/>
</marker>
<marker id="big_open_circle" markerHeight="20" markerWidth="20" orient="auto" refX="20" refY="20" viewBox="0 0 40 40">
<circle class="bg_fill" cx="20" cy="20" r="6"/>
</marker>
</defs>
<style type="text/css">

rect.backdrop {
    fill: white;
}
text{
    fill: black;
}

circle {
    fill: none;
    stroke: black;
    stroke-width: 2;
}

line {
    stroke: black;
    stroke-width: 2;
    stroke-opacity: 1;
    fill-opacity: 1;
    stroke-linecap: round;
    stroke-linejoin: miter;
}

path {
    fill: none;
    stroke: black;
    stroke-width: 2;
    stroke-opacity: 1;
    fill-opacity: 1;
    stroke-linecap: round;
    stroke-linejoin: miter;
}

line.dashed {
    stroke-dasharray: 5;
}

.fg_fill {
    fill: black;
}


.bg_fill {
    fill: white;
    stroke: black;
    stroke-width: 2;
}

tspan.head{
    fill: none;
    stroke: none;
}
    
</style>
<rect class="backdrop" height="352" width="792" x="0" y="0"/>
<g>
<line x1="16" x2="20" y1="192" y2="184"/>
<line x1="16" x2="20" y1="192" y2="200"/>
<line x1="20" x2="20" y1="8" y2="184"/>
<line x1="20" x2="24" y1="8" y2="0"/>
<line x1="20" x2="20" y1="200" y2="344"/>
<line x1="24" x2="20" y1="352" y2="344"/>
</g>
<g>
<line x1="160" x2="164" y1="192" y2="184"/>
<line x1="160" x2="164" y1="192" y2="200"/>
<line x1="164" x2="164" y1="8" y2="184"/>
<line x1="164" x2="168" y1="8" y2="0"/>
<line x1="164" x2="164" y1="200" y2="344"/>
<line x1="168" x2="164" y1="352" y2="344"/>
</g>
<g>
<line x1="336" x2="340" y1="256" y2="248"/>
<line x1="336" x2="340" y1="256" y2="264"/>
<line x1="340" x2="340" y1="200" y2="248"/>
<line x1="340" x2="344" y1="200" y2="192"/>
<line x1="340" x2="340" y1="264" y2="312"/>
<line x1="344" x2="340" y1="320" y2="312"/>
</g>
<g>
<line x1="340" x2="340" y1="56" y2="88"/>
<line x1="340" x2="344" y1="56" y2="48"/>
<line x1="344" x2="340" y1="96" y2="88"/>
</g>
<g>
<line x1="340" x2="340" y1="120" y2="152"/>
<line x1="340" x2="344" y1="120" y2="112"/>
<line x1="344" x2="340" y1="160" y2="152"/>
</g>
<g>
<line x1="524" x2="524" y1="200" y2="232"/>
<line x1="524" x2="528" y1="200" y2="192"/>
<line x1="528" x2="524" y1="240" y2="232"/>
</g>
<g>
<line x1="524" x2="524" y1="280" y2="312"/>
<line x1="524" x2="528" y1="280" y2="272"/>
<line x1="528" x2="524" y1="320" y2="312"/>
</g>
<g>
<text x="33" y="188">
GET STRING
</text>
</g>
<g>
<text x="41" y="204">
(1,N times)
</text>
</g>
<g>
<text x="177" y="28">
BEGIN
</text>
</g>
<g>
<text x="177" y="76">
GET CHARACTER
</text>
</g>
<g>
<text x="177" y="140">
CARRIAGE RETURN
</text>
</g>
<g>
<text x="177" y="252">
_______________
</text>
</g>
<g>
<text x="177" y="268">
CARRIAGE RETURN
</text>
</g>
<g>
<text x="177" y="316">
END
</text>
</g>
<g>
<text x="185" y="44">
(1 time)
</text>
</g>
<g>
<text x="185" y="92">
(1 time)
</text>
</g>
<g>
<text x="185" y="156">
(1 time)
</text>
</g>
<g>
<text x="185" y="284">
(0,1 time)
</text>
</g>
<g>
<text x="185" y="332">
(1 time)
</text>
</g>
<g>
<text x="193" y="188">
(+)
</text>
</g>
<g>
<text x="353" y="76">
AVAILABLE SYSTEM ROUTINE
</text>
</g>
<g>
<text x="353" y="140">
SKIP AND EXIT
</text>
</g>
<g>
<text x="353" y="220">
CONTROL CHARACTER
</text>
</g>
<g>
<text x="353" y="236">
(0,1 time)
</text>
</g>
<g>
<text x="353" y="284">
_________________
</text>
</g>
<g>
<text x="353" y="300">
CONTROL CHARACTER
</text>
</g>
<g>
<text x="361" y="316">
(0,1 time)
</text>
</g>
<g>
<text x="369" y="268">
(+)
</text>
</g>
<g>
<text x="537" y="220">
AVAILABLE SYSTEM ROUTINE
</text>
</g>
<g>
<text x="537" y="300">
SYSTEM PRINT CHARACTER ROUTINE
</text>
</g>
</svg>